{
  "accessors": [
    {
      "bufferView": 2,
      "componentType": 5126,
      "count": 224,
      "max": [
        1.5213049650192261,
        1.7935099601745605,
        0.58952301740646362
      ],
      "min": [
        -1.5213049650192261,
        -1.2325079441070557,
        -0.23639099299907684
      ],
      "type": "VEC3"
    },
    {
      "bufferView": 2,
      "byteOffset": 2688,
      "componentType": 5126,
      "count": 224,
      "max": [
        0.81683349609375,
        0.75221729278564453,
        0.70178699493408203
      ],
      "min": [
        -0.81683349609375,
        -0.87254869937896729,
        -0.85756349563598633
      ],
      "type": "VEC3"
    },
    {
      "bufferView": 1,
      "componentType": 5126,
      "count": 224,
      "max": [
        0.98743897676467896,
        0.98475098609924316
      ],
      "min": [
        0.55497598648071289,
        0.15938000380992889
      ],
      "type": "VEC2"
    },
    {
      "bufferView": 0,
      "componentType": 5125,
      "count": 1140,
      "max": [
        223
      ],
      "min": [
        0
      ],
      "type": "SCALAR"
    },
    {
      "bufferView": 2,
      "byteOffset": 5376,
      "componentType": 5126,
      "count": 542,
      "max": [
        1.7620359659194946,
        2.1044399738311768,
        1.9620200395584106
      ],
      "min": [
        -1.8916120529174805,
        -1.3653769493103027,
        -0.79015302658081055
      ],
      "type": "VEC3"
    },
    {
      "bufferView": 2,
      "byteOffset": 11880,
      "componentType": 5126,
      "count": 542,
      "max": [
        0.97710025310516357,
        0.99481856822967529,
        0.99949496984481812
      ],
      "min": [
        -0.97139900922775269,
        -0.98599481582641602,
        -0.89806360006332397
      ],
      "type": "VEC3"
    },
    {
      "bufferView": 1,
      "byteOffset": 1792,
      "componentType": 5126,
      "count": 542,
      "max": [
        1,
        1
      ],
      "min": [
        0,
        0
      ],
      "type": "VEC2"
    },
    {
      "bufferView": 0,
      "byteOffset": 4560,
      "componentType": 5125,
      "count": 1254,
      "max": [
        541
      ],
      "min": [
        0
      ],
      "type": "SCALAR"
    },
    {
      "bufferView": 2,
      "byteOffset": 18384,
      "componentType": 5126,
      "count": 5507,
      "max": [
        0.88181000947952271,
        1.3129290342330933,
        4.1429438591003418
      ],
      "min": [
        -1.3758929967880249,
        -1.0242270231246948,
        0.42447900772094727
      ],
      "type": "VEC3"
    },
    {
      "bufferView": 2,
      "byteOffset": 84468,
      "componentType": 5126,
      "count": 5507,
      "max": [
        0.99966996908187866,
        0.99981671571731567,
        0.99967426061630249
      ],
      "min": [
        -0.99960917234420776,
        -0.99992716312408447,
        -0.9994615912437439
      ],
      "type": "VEC3"
    },
    {
      "bufferView": 1,
      "byteOffset": 6128,
      "componentType": 5126,
      "count": 5507,
      "max": [
        0.98180502653121948,
        0.98907101154327393
      ],
      "min": [
        0.0076750000007450581,
        0.010750999674201012
      ],
      "type": "VEC2"
    },
    {
      "bufferView": 0,
      "byteOffset": 9576,
      "componentType": 5125,
      "count": 27438,
      "max": [
        5506
      ],
      "min": [
        0
      ],
      "type": "SCALAR"
    }
  ],
  "asset": {
    "extras": {
      "author": "Guilherme Lé (https://sketchfab.com/calebxd132)",
      "license": "CC-BY-4.0 (http://creativecommons.org/licenses/by/4.0/)",
      "source": "https://sketchfab.com/3d-models/hollow-knight-fanart-aee54b0967114f4699ba25a77d467eac",
      "title": "Hollow Knight Fanart"
    },
    "generator": "Sketchfab-8.78.0",
    "version": "2.0"
  },
  "bufferViews": [
    {
      "buffer": 0,
      "byteLength": 119328,
      "byteOffset": 0,
      "name": "floatBufferViews",
      "target": 34963
    },
    {
      "buffer": 0,
      "byteLength": 50184,
      "byteOffset": 119328,
      "byteStride": 8,
      "name": "floatBufferViews",
      "target": 34962
    },
    {
      "buffer": 0,
      "byteLength": 150552,
      "byteOffset": 169512,
      "byteStride": 12,
      "name": "floatBufferViews",
      "target": 34962
    }
  ],
  "buffers": [
    {
      "byteLength": 320064,
      "uri": "scene.bin"
    }
  ],
  "extensionsUsed": [
    "KHR_materials_unlit"
  ],
  "images": [
    {
      "uri": "textures/Material_baseColor.png"
    },
    {
      "uri": "textures/Material.002_baseColor.png"
    },
    {
      "uri": "textures/None_baseColor.png"
    }
  ],
  "materials": [
    {
      "doubleSided": true,
      "emissiveFactor": [
        0,
        0,
        0
      ],
      "extensions": {
        "KHR_materials_unlit": {}
      },
      "name": "Material",
      "pbrMetallicRoughness": {
        "baseColorFactor": [
          1,
          1,
          1,
          1
        ],
        "baseColorTexture": {
          "index": 0,
          "texCoord": 0
        },
        "metallicFactor": 0,
        "roughnessFactor": 1
      }
    },
    {
      "alphaMode": "BLEND",
      "doubleSided": true,
      "emissiveFactor": [
        0,
        0,
        0
      ],
      "extensions": {
        "KHR_materials_unlit": {}
      },
      "name": "Material.002",
      "pbrMetallicRoughness": {
        "baseColorFactor": [
          1,
          1,
          1,
          1
        ],
        "baseColorTexture": {
          "index": 1,
          "texCoord": 0
        },
        "metallicFactor": 0,
        "roughnessFactor": 1
      }
    },
    {
      "doubleSided": true,
      "emissiveFactor": [
        0,
        0,
        0
      ],
      "extensions": {
        "KHR_materials_unlit": {}
      },
      "name": "None",
      "pbrMetallicRoughness": {
        "baseColorFactor": [
          1,
          1,
          1,
          1
        ],
        "baseColorTexture": {
          "index": 2,
          "texCoord": 0
        },
        "metallicFactor": 0,
        "roughnessFactor": 1
      }
    }
  ],
  "meshes": [
    {
      "primitives": [
        {
          "attributes": {
            "NORMAL": 1,
            "POSITION": 0,
            "TEXCOORD_0": 2
          },
          "indices": 3,
          "material": 0,
          "mode": 4
        }
      ]
    },
    {
      "primitives": [
        {
          "attributes": {
            "NORMAL": 5,
            "POSITION": 4,
            "TEXCOORD_0": 6
          },
          "indices": 7,
          "material": 1,
          "mode": 4
        }
      ]
    },
    {
      "primitives": [
        {
          "attributes": {
            "NORMAL": 9,
            "POSITION": 8,
            "TEXCOORD_0": 10
          },
          "indices": 11,
          "material": 2,
          "mode": 4
        }
      ]
    }
  ],
  "nodes": [
    {
      "children": [
        1
      ],
      "name": "RootNode (gltf orientation matrix)",
      "rotation": [
        -0.70710678118654746,
        -0,
        -0,
        0.70710678118654757
      ]
    },
    {
      "children": [
        2
      ],
      "name": "RootNode (model correction matrix)"
    },
    {
      "children": [
        3,
        4,
        5
      ],
      "name": "hollow kinght.obj.cleaner.materialmerger.gles"
    },
    {
      "mesh": 0,
      "name": ""
    },
    {
      "mesh": 1,
      "name": ""
    },
    {
      "mesh": 2,
      "name": ""
    }
  ],
  "samplers": [
    {
      "magFilter": 9729,
      "minFilter": 9987,
      "wrapS": 10497,
      "wrapT": 10497
    }
  ],
  "scene": 0,
  "scenes": [
    {
      "name": "OSG_Scene",
      "nodes": [
        0
      ]
    }
  ],
  "textures": [
    {
      "sampler": 0,
      "source": 0
    },
    {
      "sampler": 0,
      "source": 1
    },
    {
      "sampler": 0,
      "source": 2
    }
  ]
}

